# xmcd
#
# Track frame offsets:
#	150
#	15507
#	31910
#	47525
#	63499
#	80401
#	97249
#	113282
#	131638
#	149118
#	162423
#	179864
#	195775
#	210348
#	225438
#	240103
#	256573
#
# Disc length: 3604 seconds
#
# Revision: 1
# Processed by: cddbd v1.5.2PL0 Copyright (c) Steve Scherf et al.
# Submitted via: audiograbber 1.83.01
#
DISCID=d40e1211
DTITLE=Luke Combs - This One's For You Too (Deluxe Edition)
DYEAR=2018
DGENRE=Country
TTITLE0=Out There
TTITLE1=Memories Are Made Of
TTITLE2=Lonely One
TTITLE3=Beer Can
TTITLE4=Hurricane
TTITLE5=One Number Away
TTITLE6=Don't Tempt Me
TTITLE7=When It Rains It Pours
TTITLE8=This One's For You
TTITLE9=Be Careful What You Wish For
TTITLE10=I Got Away With You
TTITLE11=Honky Tonk Highway
TTITLE12=Houston, We Got A Problem
TTITLE13=Must've Never Met You
TTITLE14=Beautiful Crazy
TTITLE15=A Long Way
TTITLE16=She Got The Best Of Me
EXTD=
EXTT0=
EXTT1=
EXTT2=
EXTT3=
EXTT4=
EXTT5=
EXTT6=
EXTT7=
EXTT8=
EXTT9=
EXTT10=
EXTT11=
EXTT12=
EXTT13=
EXTT14=
EXTT15=
EXTT16=
PLAYORDER=
